<svg width="68" height="30" fill="none" xmlns="http://www.w3.org/2000/svg"><path d="M61.512 9.14c.98 0 1.773-.799 1.773-1.783 0-.985-.794-1.784-1.773-1.784-.98 0-1.774.799-1.774 1.784 0 .984.794 1.783 1.774 1.783zM5.52 8.324h3.947v9.67h2.41v-9.67h3.947V5.9H5.521v2.424z" fill="#212121"/><path d="M21.045 9.755a4.379 4.379 0 0 0-2.31-.653 4.538 4.538 0 0 0-3.69 1.765 4.596 4.596 0 0 0-.801 4.03 4.591 4.591 0 0 0 1.006 1.852 4.535 4.535 0 0 0 5.795.83v.377h2.236V9.353h-2.236v.402zm-2.323 6.28a2.333 2.333 0 0 1-2.146-1.442 2.347 2.347 0 0 1 .503-2.546 2.318 2.318 0 0 1 2.532-.507 2.33 2.33 0 0 1 1.434 2.158 2.33 2.33 0 0 1-.681 1.635 2.304 2.304 0 0 1-1.63.676l-.012.025zm11.516-6.933c-.818 0-1.62.22-2.323.64v-.377H25.69V21.46h2.236v-3.881a4.379 4.379 0 0 0 2.323.653 4.538 4.538 0 0 0 3.377-1.253 4.585 4.585 0 0 0 1.42-3.325 4.606 4.606 0 0 0-1.42-3.325 4.554 4.554 0 0 0-3.377-1.252l-.012.025zm0 6.907c-.46 0-.909-.137-1.291-.394a2.348 2.348 0 0 1-.352-3.594 2.319 2.319 0 0 1 2.532-.506 2.34 2.34 0 0 1 1.434 2.158 2.335 2.335 0 0 1-.677 1.656 2.31 2.31 0 0 1-1.646.68zm8.68-6.656h-2.236v8.64h2.236v-8.64zm8.755.389a4.529 4.529 0 0 0-5.7.908 4.58 4.58 0 0 0-1.063 3.902 4.58 4.58 0 0 0 .841 1.896 4.528 4.528 0 0 0 3.599 1.809c.8.003 1.586-.214 2.273-.628a2.325 2.325 0 0 1-.813 1.323c-.414.334-.93.514-1.46.51a2.25 2.25 0 0 1-1.636-.69l-1.587 1.595a4.536 4.536 0 0 0 5.007 1.048 4.565 4.565 0 0 0 2.067-1.709 4.602 4.602 0 0 0 .758-2.58V9.354h-2.286v.39zm-2.323 6.28c-.46 0-.909-.137-1.29-.394a2.347 2.347 0 0 1-.352-3.594 2.32 2.32 0 0 1 2.53-.507 2.33 2.33 0 0 1 1.435 2.159 2.33 2.33 0 0 1-.677 1.643 2.304 2.304 0 0 1-1.634.68l-.012.013z" fill="#212121"/><path d="M56.354 9.102a4.54 4.54 0 0 0-2.533.772 4.579 4.579 0 0 0-1.68 2.057 4.608 4.608 0 0 0 .99 4.996 4.536 4.536 0 0 0 4.968.994 4.565 4.565 0 0 0 2.045-1.689 4.602 4.602 0 0 0-.567-5.788 4.546 4.546 0 0 0-3.223-1.342zm0 6.907a2.313 2.313 0 0 1-1.284-.406 2.347 2.347 0 0 1-.325-3.59 2.318 2.318 0 0 1 2.528-.496 2.345 2.345 0 0 1 1.429 2.156 2.335 2.335 0 0 1-.686 1.665 2.309 2.309 0 0 1-1.662.671z" fill="#E94A49"/><path d="M11.94 30a11.92 11.92 0 0 1-8.44-3.52A12.052 12.052 0 0 1 0 17.994h5.558a6.448 6.448 0 0 0 1.873 4.534 6.377 6.377 0 0 0 4.51 1.883v5.59z" fill="#0487C0"/><path d="M56.329 24.901V20.82a7.124 7.124 0 0 0 5.039-2.104 7.204 7.204 0 0 0 2.092-5.068h4.06a11.335 11.335 0 0 1-3.293 7.943 11.21 11.21 0 0 1-7.898 3.31z" fill="#212121"/><path d="m18.097 5.272-2.123-2.135C17.974 1.128 20.685 0 23.512 0c2.826 0 5.537 1.128 7.537 3.137l-2.123 2.135a7.62 7.62 0 0 0-10.828 0z" fill="#E94A49"/></svg>